<svg xmlns="http://www.w3.org/2000/svg" fill="#e3e4e8" width="1000" height="1000" viewBox="0 0 1000 1000">
  <title>Corner Border - 20</title>
  <g>
    <path d="M187.941,802.7a111.649,111.649,0,0,1-14.867-31.461c-4.342-14.156-7.139-31.718-8.348-51.641a508.485,508.485,0,0,1-.139-65.432,502.862,502.862,0,0,1,6.309-54.376c.2-.789.444-1.774.768-3.066a100.1,100.1,0,0,1,4.167-12.913,117.514,117.514,0,0,1,23.741-37.271c11.881-12.568,27.852-23.447,44.782-29.148,8.473-2.939,17.03-4.575,24.026-4.285a30.1,30.1,0,0,1,9.134,1.676,15.384,15.384,0,0,1,3.254,1.529,18.779,18.779,0,0,1,2.672,1.977,16.726,16.726,0,0,1,5.266,8.7c.2,2.5.723,2.458-.215,4.352a14.294,14.294,0,0,1-4.34,4.054,21.984,21.984,0,0,1-4.243,2.093,21.516,21.516,0,0,1-6.673,1.065,6.77,6.77,0,0,0-2.521.557s-.885.386-1.371,2.153c-.436,1.648-.628,5.6,4.544,10.158,5.073,4.168,15.925,8.222,29.8.537a29.4,29.4,0,0,0,9.731-9.768,32.114,32.114,0,0,0,4.338-15.319c.381-11.2-4.647-22.531-13.954-31.09a44.843,44.843,0,0,0-7.978-5.723,43.226,43.226,0,0,0-9.213-3.874,55.185,55.185,0,0,0-18.844-2.118c-12.391.737-23.52,4.713-33.557,9.812a117.139,117.139,0,0,0-35.991,28.805c1.194-2.492,2.385-5.079,3.643-7.694,3.006-6.239,6.484-13.034,10.458-20,7.916-13.934,17.931-28.488,29.466-40.507a144.992,144.992,0,0,1,36.067-27.859,212.437,212.437,0,0,1,28.205-12.587c7.116-2.645,12.134-4.545,15.643-6.378,3.507-1.809,5.472-3.426,6.5-4.815a4.968,4.968,0,0,0,1.121-2.291,4.274,4.274,0,0,0-.634-2.427c-.795-1.444-2.527-3.632-6.587-5.639-4.043-1.967-10.532-3.909-20.428-3.685-9.8.286-23.152,2.868-38.455,11.226-15.269,8.217-30.474,22.215-41.436,38.458a151.645,151.645,0,0,0-10.2,17.419c2.263-7.647,4.432-15.321,6.339-23.066,1.222-5.059,2.257-10.2,3.148-15.39,4.522-4.3,9.943-9.708,15.98-15.113a168.552,168.552,0,0,1,25.527-18.472c9.084-5.41,18.313-9.742,26.212-13.5,15.834-7.252,23.636-12.1,27.372-16.913,3.777-4.553,3.2-8.305,3.2-8.305s-.41-3.782-6.116-6.59c-5.525-2.535-17.455-4.75-37.386,4.344a107.811,107.811,0,0,0-29.2,20.895,122.759,122.759,0,0,0-21.631,29.273c-.595,1.145-1.088,2.213-1.636,3.325.041-.941.141-1.875.164-2.817a109.208,109.208,0,0,0-5.883-39.331,84.762,84.762,0,0,0-19.784-32.077c-1.362-1.387-2.88-2.6-4.36-3.853a144.53,144.53,0,0,0-15.023-22.648c-8.629-10.82-19.516-21.407-29.52-33.018-19.856-22.79-35.771-54.213-34.941-85.171a85.62,85.62,0,0,1,11.268-42.092c6.623-11.644,17.433-19.686,25.388-20.647a17.891,17.891,0,0,1,10.987,1.965,33.487,33.487,0,0,1,9.7,7.468,30.674,30.674,0,0,1,8.055,17.33c1.063,9.706-5.3,16.735-9.27,20.16-4.287,3.548-7.607,4.885-9.359,6.046-1.82,1.105-2.072,2.021-2.072,2.021s-.378.893,1.261,2.652c1.575,1.565,5.875,4.782,15.472,3.5a33.361,33.361,0,0,0,16.4-7.817,35.923,35.923,0,0,0,10.795-15.493c3.5,11.087,12.034,22.981,21.9,28.1,10.905,5.805,18.255,3.19,21.561.1a12.51,12.51,0,0,0,3.941-6.909,19.828,19.828,0,0,0-.68-7.914c-1.3-4.2-3.832-8.456-10.237-11.9-6.431-3.348-16.564-7.152-24.616-13.2a72.365,72.365,0,0,1-9.613-8.353,53.663,53.663,0,0,0-9.348-24.284A68.115,68.115,0,0,0,220.5,112.2a48.984,48.984,0,0,0,26.043-8.668c7.029-5.079,10.779-11.2,12.206-16.153,1.5-4.983.769-8.814-.331-11.248a10.171,10.171,0,0,0-4.125-4.525,8.237,8.237,0,0,0-2.207-.909,11.49,11.49,0,0,0-2.405-.2,24.287,24.287,0,0,0-5.64.764,35.907,35.907,0,0,0-6.926,2.4A51.105,51.105,0,0,0,228.8,78.9a82.66,82.66,0,0,1-13.242,8.167,89.541,89.541,0,0,1-19,5.945c-4.746.99-9.3,1.715-13.168,2.3a57.226,57.226,0,0,0-7.636-5.127,44.551,44.551,0,0,0-5.07-2.36,73.921,73.921,0,0,0,15.231-19.982c4.846-9.052,8.155-20.124,7.405-30.606-.716-10.648-4.987-18.162-9.235-22.541-4.362-4.439-8.621-5.935-11.662-6.137a9.469,9.469,0,0,0-6.3,1.656A6.84,6.84,0,0,0,164.4,11.9a9.872,9.872,0,0,0-1,2.205,26.654,26.654,0,0,0-1.128,5.743c-.587,4.913-.15,9.771.751,19.346.94,9.7-1.456,29.324-7.944,42.251-.489,1-1.053,1.9-1.593,2.838a41.968,41.968,0,0,0-7.146.415c-10.806,1.61-20.325,6.754-27.991,13.22a78.2,78.2,0,0,0-18.454,23.4,107.437,107.437,0,0,0-11.45,56.924c1.237,19.545,7.658,38.323,16.782,54.269a168.122,168.122,0,0,0,32.864,40.7c12.1,11.012,23.886,19.843,33.333,28.938,2.071,1.958,3.987,3.936,5.845,5.915a58.584,58.584,0,0,0-9.291-3.293c-20.866-5.548-41.435-.177-53.884,11.35C101.474,327.662,97.731,342.3,99.032,353.9a33.911,33.911,0,0,0,5.339,14.973,32.216,32.216,0,0,0,8.539,8.7,27.031,27.031,0,0,0,14.874,5.044,15.905,15.905,0,0,0,7.607-1.663c2.807-1.7,2.409-2.642,2.409-2.642s-.2-.9-2.65-2.095c-2.255-1.38-7.185-3.119-12.026-9.871a18.617,18.617,0,0,1-3.357-13.271,25.078,25.078,0,0,1,10.671-17.231c6.47-4.7,17.558-6.943,29.557-3.139,11.612,3.411,22.859,14.2,29.052,31.63C202.23,399.073,183.489,450,170.48,500.215c-6.934,25.34-13.169,51.778-16.614,77.841a495.185,495.185,0,0,0-4.454,75.783c.1,5.752.314,11.4.606,16.97a178.5,178.5,0,0,0-12.266-28.966,173.819,173.819,0,0,0-19.041-28.491A127.183,127.183,0,0,0,107.239,600.9a54.271,54.271,0,0,0-16.178-10.657,38.834,38.834,0,0,0-20.522-2.527,30.618,30.618,0,0,0-25.232,39.074,27.94,27.94,0,0,0,12.36,16.3,24.417,24.417,0,0,0,11.641,3.592c6.232.121,8.961-1.982,10.192-3.283a3.47,3.47,0,0,0,1.122-2.351,5.056,5.056,0,0,0-.983-2.39c-.908-1.47-2.8-3.4-5.151-6.242-2.306-2.631-5.073-7.362-4.065-10.644.257-1.783,1.648-4.178,2.482-4.159.214.046.634-.11,1.784-.173a12.063,12.063,0,0,1,4.907.908c4.183,1.468,10.575,7.128,17.377,14.271A201.515,201.515,0,0,1,115.961,655.3a194.152,194.152,0,0,1,27.072,53.276c5.878,18.307,10.464,35.633,15.485,47.275a134.852,134.852,0,0,0,6.439,13.416l2.735,4.615-1.529-5.111c-.537-2.019-1.188-4.651-1.842-7.72,1.342,4.157,2.766,8.109,4.287,11.783a112.776,112.776,0,0,0,18.3,30.662,85.035,85.035,0,0,0,6.662,6.884L196,812.631s-.75-.854-2.186-2.486A86.005,86.005,0,0,1,187.941,802.7Zm-4.4-258.37c.374-1.31.8-2.62,1.179-3.93a16.317,16.317,0,0,0,1.616-1.043C185.36,541.016,184.408,542.675,183.542,544.327Zm8.053-26.2a87.036,87.036,0,0,1-2.627,11.586,28.706,28.706,0,0,1-3.032,6.639Q188.659,527.245,191.6,518.125Z" transform="translate(-7.912 -8.535)"/>
    <path d="M155.559,788.815a149.356,149.356,0,0,0-40.047-12.948,130.906,130.906,0,0,0-41.483-.761c-12.441,1.852-21.338,5.38-27.517,8.823-6.178,3.546-9.735,6.921-11.706,9.909-3.977,5.791-2.2,9.158-2.2,9.158s1.594,3.444,8.056,4.845a49.7,49.7,0,0,0,13.678.474c6.1-.427,13.842-1.654,24.208-3.191a305.887,305.887,0,0,1,35.068-3.715,199.205,199.205,0,0,1,37.393,1.885,191.615,191.615,0,0,1,29.559,6.8c7.369,2.445,11.88,4.192,11.88,4.192s-3.419-3.309-9.634-8.37A150.986,150.986,0,0,0,155.559,788.815Z" transform="translate(-7.912 -8.535)"/>
    <path d="M55.062,734.25a158.211,158.211,0,0,1,43.063,7.886,143.975,143.975,0,0,1,41.483,21.91c11.817,8.955,20.886,19.838,28.443,26.761a83.062,83.062,0,0,0,12.723,10.183,94.316,94.316,0,0,1-9.029-13.157c-5.135-8.376-10.824-21.33-21.447-34.561a136.046,136.046,0,0,0-41.884-34.591c-16.785-8.983-35.391-14.05-52.134-14.762a62.614,62.614,0,0,0-24.188,3.346,44.171,44.171,0,0,0-9.79,5.06,35.18,35.18,0,0,0-7.375,6.817C7.365,728.67,7.2,737.717,8.578,742.757c1.531,5.216,4.132,6.927,5.7,7.538a3.743,3.743,0,0,0,2.5.245,6.459,6.459,0,0,0,2.1-1.394c1.179-1.062,2.737-2.9,4.8-4.932a38.584,38.584,0,0,1,9.087-6.7C36.5,735.749,42.705,733.714,55.062,734.25Z" transform="translate(-7.912 -8.535)"/>
    <path d="M221.654,767.13a140.127,140.127,0,0,1,32.805-30.25,187.543,187.543,0,0,1,37.777-18.953c3.546-1.333,6.767-2.481,9.833-3.548-1.068,3.065-2.215,6.287-3.548,9.832a187.517,187.517,0,0,1-18.953,37.777,140.129,140.129,0,0,1-30.25,32.8,114.9,114.9,0,0,1-31.677,17.616A98.2,98.2,0,0,1,203,816.5l4.094.388a93.656,93.656,0,0,0,11.451.175,109.785,109.785,0,0,0,38.4-9.149,131.256,131.256,0,0,0,42.491-29.762A135.971,135.971,0,0,0,321.5,747.064a154.01,154.01,0,0,1,24.428-7.489c3.47-.849,7.126-1.664,10.907-2.535.116.162.209.265.326.434a28.688,28.688,0,0,1,5.074,11.777,49.3,49.3,0,0,1,.6,11.613c-.287,5.067-.971,11.763-2.767,16.789-2.929,9.756-15.578,21.274-32.073,27.169-16.521,6.223-36.544,8.111-54.643,9.617-36.5,2.758-64.567,5.741-64.567,5.741s27.771,4.6,64.246,9.434c18.241,2.172,39.615,4.594,62.01-.168a87.211,87.211,0,0,0,31.842-13.736c9.6-6.778,17.9-16.618,21.828-28,3.723-11.262,3.648-19.833,3.16-27.782a49.83,49.83,0,0,0-6.338-21.311,36.421,36.421,0,0,0-6.258-7.821,112,112,0,0,0,12.082-5.067,92.5,92.5,0,0,0,37.24-33.7c3.917-6.488,6.9-12.895,8.376-19.815a36.524,36.524,0,0,0-.818-19.549c-4.444-11.767-12.683-15.363-17.75-16.091-5.329-.608-7.82,1.449-8.786,2.737a3.77,3.77,0,0,0-.912,2.317,8.2,8.2,0,0,0,.592,2.415,32.165,32.165,0,0,1,1.9,5.888c.384,2.275.8,5.509-.047,8.284-.779,2.754-2.27,8-8.412,17.915a100.716,100.716,0,0,1-24.605,27.662c-10.667,8.176-24.975,14.658-37.7,21.634a141.21,141.21,0,0,0-12.978,7.852c4.455-12.408,5.905-22.641,5.978-30.636.481-.27,1.008-.542,1.434-.811,6.487-3.8,6.6-7.6,6.6-7.6s.361-3.8-6.977-7.573a31,31,0,0,0-3.362-1.343,31.38,31.38,0,0,0-1.342-3.362c-3.777-7.338-7.574-6.977-7.574-6.977s-3.8.118-7.6,6.605c-.268.426-.54.953-.811,1.434-8,.073-18.227,1.523-30.635,5.978a141.656,141.656,0,0,0,7.852-12.978c6.976-12.721,13.457-27.029,21.634-37.7a100.694,100.694,0,0,1,27.661-24.6c9.918-6.142,15.162-7.633,17.915-8.412,2.776-.845,6.009-.432,8.284-.048a32.114,32.114,0,0,1,5.888,1.9,8.211,8.211,0,0,0,2.415.592,3.773,3.773,0,0,0,2.318-.912c1.287-.966,3.345-3.456,2.736-8.786-.728-5.067-4.324-13.306-16.091-17.75a36.543,36.543,0,0,0-19.549-.818c-6.919,1.48-13.327,4.459-19.815,8.376a92.508,92.508,0,0,0-33.7,37.241,112.189,112.189,0,0,0-5.067,12.081,36.381,36.381,0,0,0-7.82-6.257,49.825,49.825,0,0,0-21.312-6.339c-7.948-.487-16.52-.562-27.782,3.161-11.384,3.925-21.224,12.228-28,21.828A87.189,87.189,0,0,0,187,681.411c-4.761,22.394-2.339,43.768-.167,62.01,4.832,36.475,9.433,64.246,9.433,64.246s2.983-28.071,5.742-64.568c1.505-18.1,3.393-38.122,9.617-54.642,5.894-16.5,17.412-29.145,27.169-32.074,5.025-1.8,11.722-2.48,16.789-2.767a49.227,49.227,0,0,1,11.612.6,28.68,28.68,0,0,1,11.778,5.073c.168.118.272.211.433.327-.871,3.781-1.685,7.436-2.534,10.907a154.037,154.037,0,0,1-7.49,24.428,135.93,135.93,0,0,0-31.09,22.061,131.255,131.255,0,0,0-29.763,42.491,109.762,109.762,0,0,0-9.148,38.4,93.462,93.462,0,0,0,.175,11.451c.251,2.644.387,4.094.387,4.094a98.343,98.343,0,0,1,4.094-14.642A114.9,114.9,0,0,1,221.654,767.13Z" transform="translate(-7.912 -8.535)"/>
    <path d="M92.789,288.506A49.262,49.262,0,0,0,72.517,299.1c-5.242,4.687-7.851,9.554-8.925,13.489a14.412,14.412,0,0,0,.306,9.4,11.205,11.205,0,0,0,5.387,6,18.3,18.3,0,0,0,7.955,1.233c4.544-.337,9.48-1.985,15.563-7.546,5.97-5.645,14.632-14.426,24.775-19.4a65.035,65.035,0,0,1,13.694-5.192c3.765-.879,6.275-1.26,6.275-1.26a50.161,50.161,0,0,0-5.655-3.442,52.943,52.943,0,0,0-16.281-5.155A56.872,56.872,0,0,0,92.789,288.506Z" transform="translate(-7.912 -8.535)"/>
    <path d="M70.475,249.345a111.183,111.183,0,0,0,21.852,17c7.025,4.318,13.93,7.907,19.153,9.476a32.078,32.078,0,0,0,8.4,1.69,37.781,37.781,0,0,1-5.836-5.679c-3.292-3.741-6.881-9.469-11.066-16.3a224.943,224.943,0,0,1-11.753-21.2,153.457,153.457,0,0,1-7.458-19.086c-3.408-10.8-6.1-15.932-9.591-19.657a15.857,15.857,0,0,0-6.9-4.578s-3.717-1.109-8.13,2.483c-2.191,1.824-4.439,5-5.715,10.222-1.244,5.175-1.322,12.453,1.534,21.107C57.78,233.509,63.593,242.347,70.475,249.345Z" transform="translate(-7.912 -8.535)"/>
    <path d="M47.217,291.1c9.814,0,25.81-15.177,25.81-15.177s-16-15.179-25.81-15.179-9.73,15.179-9.73,15.179S37.4,291.1,47.217,291.1Z" transform="translate(-7.912 -8.535)"/>
    <path d="M148.683,376.235c-2.571,3.577-2.543,7.974-.591,10.59,2.037,2.583,6.4,3.849,10.424,2.143,3.99-1.667,5.547-7.206,2.081-11.742C157.1,372.671,151.168,372.723,148.683,376.235Z" transform="translate(-7.912 -8.535)"/>
    <path d="M152.005,414.68a11.643,11.643,0,0,0,8.559,11.743c5.579,1.53,11.737-2.351,12.476-9.653.755-7.234-4.674-12.637-10.421-11.916C156.779,405.562,152.546,409.924,152.005,414.68Z" transform="translate(-7.912 -8.535)"/>
    <path d="M139.93,444.108c-3,6.682-.214,14.939,6.529,17.835a13.455,13.455,0,0,0,17.707-7.085c3.221-7.158.024-15.589-6.908-18A13.808,13.808,0,0,0,139.93,444.108Z" transform="translate(-7.912 -8.535)"/>
    <path d="M123.429,477.089c-3.2,9.2,1.71,18.646,10.228,20.877A16.443,16.443,0,0,0,144.34,466.93C136.262,463.441,126.575,467.872,123.429,477.089Z" transform="translate(-7.912 -8.535)"/>
    <path d="M115.79,516.524c-1.489,7.857,3.595,15.023,10.865,15.92a13.67,13.67,0,0,0,5.026-26.831C124.574,503.82,117.246,508.662,115.79,516.524Z" transform="translate(-7.912 -8.535)"/>
    <path d="M124.368,567.552A10.9,10.9,0,0,0,125.2,545.8c-5.77-.515-10.973,4.157-11.187,10.457A10.548,10.548,0,0,0,124.368,567.552Z" transform="translate(-7.912 -8.535)"/>
    <path d="M125.09,586.506a9.07,9.07,0,0,0-8.049,6.815c-.274,1.435.322,2.422,1.076,4a13.6,13.6,0,0,0,3.512,4.638,5.886,5.886,0,0,0,6.241.751c2.24-.958,4.258-3.832,4.724-6.824C133.441,589.763,129.344,586.263,125.09,586.506Z" transform="translate(-7.912 -8.535)"/>
    <path d="M159.525,179.828c-.61-3.6-4.411-6.15-8.768-5.666-4.3.474-7.472,4.162-6.793,8.19.653,4.031,4.778,6.534,9.041,5.622S160.106,183.428,159.525,179.828Z" transform="translate(-7.912 -8.535)"/>
    <path d="M162.818,219.407c5.348-2.334,8.128-7.792,6.525-12.312-1.64-4.508-7.26-6.946-12.871-5.341s-8.921,7.252-7.021,12.491C151.319,219.5,157.468,221.743,162.818,219.407Z" transform="translate(-7.912 -8.535)"/>
    <path d="M178.611,248.3c6.028-4.159,8.131-11.578,5.159-16.651s-10.424-6.813-17.021-3.661c-6.616,3.156-9.45,10.907-5.858,17.059C164.5,251.193,172.591,252.461,178.611,248.3Z" transform="translate(-7.912 -8.535)"/>
    <path d="M198.284,274.773c7.017-5.34,8.694-14.818,4.067-20.881-4.608-6.021-13.832-6.739-21.084-1.747s-9.193,14.653-4.3,21.053C181.83,279.564,191.285,280.1,198.284,274.773Z" transform="translate(-7.912 -8.535)"/>
    <path d="M215.77,299.56c6.323-3.718,8.389-11.756,4.424-17.421-3.948-5.644-11.959-6.363-17.793-1.945s-7.464,12.09-3.961,17.1C201.934,302.285,209.468,303.268,215.77,299.56Z" transform="translate(-7.912 -8.535)"/>
    <path d="M228.471,327.034c5.614-1.6,8.837-7.5,6.618-12.837-2.183-5.333-8.514-7.216-13.677-4.529-5.193,2.7-7.622,8.273-5.885,12.541C217.3,326.449,222.857,328.637,228.471,327.034Z" transform="translate(-7.912 -8.535)"/>
    <path d="M231.649,357a7.08,7.08,0,1,0,.068-13.97c-4.308.488-7.531,3.612-7.562,6.939C224.193,353.3,227.266,356.409,231.649,357Z" transform="translate(-7.912 -8.535)"/>
    <path d="M227.633,860.888a150.983,150.983,0,0,0-17.1-27.255c-5.06-6.215-8.369-9.634-8.369-9.634s1.746,4.512,4.192,11.88a191.683,191.683,0,0,1,6.8,29.559,199.048,199.048,0,0,1,1.885,37.394,305.687,305.687,0,0,1-3.715,35.068c-1.536,10.365-2.763,18.111-3.191,24.208a49.775,49.775,0,0,0,.474,13.678c1.4,6.461,4.845,8.055,4.845,8.055s3.367,1.778,9.158-2.2c2.988-1.97,6.364-5.528,9.91-11.706,3.443-6.179,6.97-15.075,8.822-27.517a130.934,130.934,0,0,0-.76-41.483A149.391,149.391,0,0,0,227.633,860.888Z" transform="translate(-7.912 -8.535)"/>
    <path d="M297.767,908.034a136.051,136.051,0,0,0-34.591-41.885c-13.232-10.622-26.185-16.311-34.561-21.447a94.3,94.3,0,0,1-13.158-9.029A83.092,83.092,0,0,0,225.64,848.4c6.923,7.556,17.807,16.626,26.761,28.442a143.963,143.963,0,0,1,21.91,41.483,158.179,158.179,0,0,1,7.886,43.064c.536,12.357-1.5,18.565-3.263,22.288a38.59,38.59,0,0,1-6.7,9.087c-2.035,2.067-3.87,3.625-4.933,4.805a6.45,6.45,0,0,0-1.394,2.1,3.746,3.746,0,0,0,.245,2.5c.611,1.57,2.322,4.17,7.539,5.7,5.04,1.376,14.086,1.214,23.614-6.349a35.183,35.183,0,0,0,6.818-7.375,44.139,44.139,0,0,0,5.059-9.789,62.619,62.619,0,0,0,3.346-24.189C311.816,943.424,306.749,924.819,297.767,908.034Z" transform="translate(-7.912 -8.535)"/>
    <path d="M367.487,626.225c-5.45,5.877-10.051,15.735-13.421,24.573-4.408,9.469-7.173,17.645-7.173,17.645s.562-.145,1.519-.408c-.263.957-.408,1.519-.408,1.519s8.176-2.765,17.645-7.173c8.838-3.369,18.7-7.971,24.573-13.42,12.551-11.64,2.122-22.668,2.122-22.668a19.183,19.183,0,0,1-2.189-2.19S379.126,613.674,367.487,626.225Z" transform="translate(-7.912 -8.535)"/>
    <path d="M729.221,900.837a52.951,52.951,0,0,0-5.155-16.281,49.931,49.931,0,0,0-3.443-5.655s-.38,2.509-1.259,6.275a65.018,65.018,0,0,1-5.193,13.693c-4.978,10.143-13.759,18.806-19.4,24.776-5.562,6.083-7.21,11.018-7.546,15.562a18.288,18.288,0,0,0,1.232,7.956,11.205,11.205,0,0,0,6,5.387,14.423,14.423,0,0,0,9.4.305c3.934-1.073,8.8-3.682,13.489-8.924a49.273,49.273,0,0,0,10.592-20.272A56.856,56.856,0,0,0,729.221,900.837Z" transform="translate(-7.912 -8.535)"/>
    <path d="M820.857,942.269c-3.726-3.494-8.859-6.184-19.658-9.591a153.54,153.54,0,0,1-19.086-7.459,225.058,225.058,0,0,1-21.2-11.752c-6.828-4.186-12.557-7.775-16.3-11.066a37.87,37.87,0,0,1-5.679-5.837,32.07,32.07,0,0,0,1.691,8.4c1.569,5.223,5.157,12.128,9.476,19.152a111.109,111.109,0,0,0,17,21.852c7,6.883,15.836,12.7,24.52,15.511,8.655,2.856,15.932,2.778,21.107,1.533,5.221-1.276,8.4-3.524,10.222-5.715,3.592-4.413,2.484-8.129,2.484-8.129A15.851,15.851,0,0,0,820.857,942.269Z" transform="translate(-7.912 -8.535)"/>
    <path d="M725.348,969.231c0,9.814,15.178,9.729,15.178,9.729s15.178.085,15.178-9.729-15.178-25.811-15.178-25.811S725.348,959.417,725.348,969.231Z" transform="translate(-7.912 -8.535)"/>
    <path d="M1001.752,832.365c-4.379-4.248-11.893-8.518-22.541-9.235-10.482-.749-21.553,2.559-30.606,7.4a73.952,73.952,0,0,0-19.982,15.231,44.454,44.454,0,0,0-2.36-5.069,57.169,57.169,0,0,0-5.126-7.637c.58-3.87,1.305-8.422,2.3-13.168a89.617,89.617,0,0,1,5.945-19,82.66,82.66,0,0,1,8.167-13.242,50.966,50.966,0,0,0,5.235-8.316,35.935,35.935,0,0,0,2.4-6.926,24.327,24.327,0,0,0,.764-5.639,11.44,11.44,0,0,0-.2-2.405,8.193,8.193,0,0,0-.909-2.208,10.164,10.164,0,0,0-4.525-4.124c-2.433-1.1-6.264-1.829-11.248-.331-4.956,1.427-11.073,5.176-16.153,12.206a48.978,48.978,0,0,0-8.668,26.043,68.13,68.13,0,0,0,3.987,24.92,53.678,53.678,0,0,0-24.285-9.348,72.365,72.365,0,0,1-8.352-9.613c-6.045-8.051-9.85-18.184-13.2-24.616-3.447-6.4-7.7-8.939-11.9-10.236a19.812,19.812,0,0,0-7.915-.68,12.5,12.5,0,0,0-6.909,3.941c-3.087,3.3-5.7,10.656.1,21.56,5.119,9.867,17.012,18.4,28.1,21.9a35.952,35.952,0,0,0-15.494,10.8,33.366,33.366,0,0,0-7.817,16.4c-1.279,9.6,1.938,13.9,3.5,15.471,1.76,1.639,2.652,1.261,2.652,1.261s.916-.252,2.021-2.071c1.162-1.753,2.5-5.073,6.046-9.36,3.426-3.965,10.455-10.333,20.16-9.27a30.677,30.677,0,0,1,17.33,8.055,33.47,33.47,0,0,1,7.468,9.7,17.9,17.9,0,0,1,1.966,10.986c-.961,7.955-9,18.766-20.647,25.389A85.637,85.637,0,0,1,838.971,902.4c-30.957.83-62.381-15.084-85.17-34.94-11.611-10-22.2-20.892-33.018-29.521a144.653,144.653,0,0,0-22.649-15.023c-1.255-1.48-2.465-3-3.852-4.359a84.792,84.792,0,0,0-32.077-19.785,109.214,109.214,0,0,0-39.331-5.882c-.943.022-1.877.122-2.818.163,1.112-.548,2.18-1.04,3.326-1.636a122.728,122.728,0,0,0,29.272-21.631,107.815,107.815,0,0,0,20.9-29.2c9.094-19.931,6.879-31.861,4.343-37.386-2.807-5.705-6.59-6.115-6.59-6.115s-3.752-.577-8.3,3.2c-4.813,3.736-9.661,11.539-16.913,27.373-3.755,7.9-8.088,17.127-13.5,26.211A168.5,168.5,0,0,1,614.116,779.4C608.71,785.432,603.3,790.853,599,795.376c-5.185.89-10.33,1.925-15.389,3.147-7.746,1.908-15.419,4.076-23.067,6.34a151.718,151.718,0,0,0,17.42-10.2c16.243-10.963,30.24-26.168,38.457-41.437,8.358-15.3,10.94-28.65,11.226-38.454.224-9.9-1.718-16.385-3.684-20.429-2.007-4.06-4.2-5.792-5.64-6.586a4.264,4.264,0,0,0-2.427-.634,4.972,4.972,0,0,0-2.291,1.121c-1.389,1.029-3.006,3-4.815,6.5-1.832,3.509-3.733,8.526-6.377,15.643a212.392,212.392,0,0,1-12.588,28.205,144.946,144.946,0,0,1-27.859,36.066c-12.019,11.535-26.573,21.55-40.506,29.467-6.963,3.973-13.758,7.451-20,10.457-2.615,1.258-5.2,2.449-7.694,3.643a117.125,117.125,0,0,0,28.8-35.991c5.1-10.037,9.075-21.165,9.812-33.557a55.185,55.185,0,0,0-2.118-18.844,43.175,43.175,0,0,0-3.874-9.213,44.829,44.829,0,0,0-5.723-7.978c-8.559-9.306-19.885-14.334-31.09-13.953a32.109,32.109,0,0,0-15.318,4.337,29.416,29.416,0,0,0-9.769,9.731c-7.684,13.877-3.63,24.728.538,29.8,4.557,5.173,8.51,4.98,10.157,4.545,1.768-.487,2.154-1.371,2.154-1.371a6.8,6.8,0,0,0,.557-2.522,21.491,21.491,0,0,1,1.065-6.673,21.954,21.954,0,0,1,2.093-4.243,14.291,14.291,0,0,1,4.053-4.34c1.894-.937,1.847-.412,4.353-.215a16.724,16.724,0,0,1,8.695,5.267,18.855,18.855,0,0,1,1.978,2.671,15.411,15.411,0,0,1,1.528,3.254,30.044,30.044,0,0,1,1.676,9.134c.291,7-1.346,15.553-4.285,24.026-5.7,16.931-16.58,32.9-29.147,44.783a117.512,117.512,0,0,1-37.272,23.74,100.288,100.288,0,0,1-12.913,4.168l-3.065.767a502.9,502.9,0,0,1-54.376,6.31,508.484,508.484,0,0,1-65.432-.139c-19.923-1.21-37.485-4.007-51.641-8.348a111.676,111.676,0,0,1-31.461-14.867,86.044,86.044,0,0,1-7.448-5.877l-2.487-2.187,2.249,2.432a85.277,85.277,0,0,0,6.885,6.661,112.742,112.742,0,0,0,30.661,18.3c3.674,1.521,7.627,2.946,11.784,4.288-3.069-.654-5.7-1.306-7.72-1.843l-5.112-1.529,4.615,2.735a134.512,134.512,0,0,0,13.416,6.439c11.642,5.022,28.968,9.607,47.276,15.485a194.15,194.15,0,0,1,53.275,27.073,201.52,201.52,0,0,1,22.678,18.987c7.142,6.8,12.8,13.194,14.271,17.377a12.063,12.063,0,0,1,.907,4.908c-.062,1.149-.218,1.57-.173,1.783.02.834-2.376,2.225-4.159,2.482-3.282,1.008-8.013-1.758-10.643-4.064-2.846-2.356-4.773-4.244-6.242-5.152a5.057,5.057,0,0,0-2.391-.983,3.468,3.468,0,0,0-2.35,1.123c-1.3,1.23-3.405,3.96-3.284,10.192a24.417,24.417,0,0,0,3.593,11.64,27.935,27.935,0,0,0,16.3,12.361,30.621,30.621,0,0,0,39.075-25.233,38.846,38.846,0,0,0-2.527-20.522,54.253,54.253,0,0,0-10.657-16.177A127.443,127.443,0,0,0,403.1,897.736,173.772,173.772,0,0,0,374.6,878.7a178.458,178.458,0,0,0-28.965-12.267c5.565.292,11.217.507,16.97.607a495.169,495.169,0,0,0,75.782-4.455c26.063-3.445,52.5-9.68,77.841-16.613,50.215-13.01,101.142-31.751,135.879-18.568,17.434,6.193,28.219,17.441,31.631,29.052,3.8,12,1.56,23.087-3.139,29.558a25.083,25.083,0,0,1-17.231,10.671,18.619,18.619,0,0,1-13.272-3.358c-6.752-4.84-8.49-9.77-9.871-12.026-1.19-2.447-2.094-2.649-2.094-2.649s-.945-.4-2.643,2.408a15.921,15.921,0,0,0-1.663,7.607,27.042,27.042,0,0,0,5.044,14.875,32.228,32.228,0,0,0,8.7,8.538,33.916,33.916,0,0,0,14.973,5.34c11.6,1.3,26.234-2.442,37.774-15.064,11.527-12.45,16.9-33.019,11.349-53.885a58.677,58.677,0,0,0-3.292-9.291c1.978,1.858,3.957,3.775,5.915,5.846,9.1,9.446,17.926,21.231,28.937,33.333a168.105,168.105,0,0,0,40.7,32.863c15.945,9.124,34.724,15.545,54.268,16.782a107.436,107.436,0,0,0,56.924-11.449,78.22,78.22,0,0,0,23.4-18.455c6.465-7.665,11.61-17.185,13.22-27.991a41.951,41.951,0,0,0,.415-7.145c.933-.541,1.834-1.105,2.838-1.594,12.926-6.488,32.553-8.884,42.251-7.943,9.574.9,14.432,1.337,19.345.751a26.678,26.678,0,0,0,5.744-1.128,9.931,9.931,0,0,0,2.2-1,6.827,6.827,0,0,0,1.685-1.717,9.468,9.468,0,0,0,1.655-6.3C1007.687,840.986,1006.191,836.727,1001.752,832.365ZM477.093,830.11a16.742,16.742,0,0,0-1.043,1.616c-1.31.384-2.62.806-3.929,1.18C473.772,832.04,475.431,831.087,477.093,830.11Zm3,.4a28.748,28.748,0,0,1,6.639-3.032,87.036,87.036,0,0,1,11.586-2.627Q489.2,827.8,480.1,830.511Z" transform="translate(-7.912 -8.535)"/>
    <path d="M640.213,867.765c3.512-2.486,3.563-8.42-.991-11.915-4.536-3.466-10.076-1.909-11.743,2.082-1.705,4.02-.44,8.387,2.143,10.423C632.239,870.308,636.636,870.335,640.213,867.765Z" transform="translate(-7.912 -8.535)"/>
    <path d="M599.677,843.407c-7.3.74-11.183,6.9-9.653,12.476a11.646,11.646,0,0,0,11.743,8.56c4.756-.541,9.118-4.775,9.826-10.615C612.314,848.081,606.911,842.652,599.677,843.407Z" transform="translate(-7.912 -8.535)"/>
    <path d="M561.589,852.281a13.455,13.455,0,0,0-7.084,17.708c2.9,6.742,11.152,9.527,17.835,6.529a13.81,13.81,0,0,0,7.245-17.329C577.179,852.257,568.747,849.06,561.589,852.281Z" transform="translate(-7.912 -8.535)"/>
    <path d="M528.979,862.867a16.665,16.665,0,0,0-10.5,19.924c2.232,8.517,11.681,13.428,20.877,10.227,9.217-3.146,13.648-12.833,10.16-20.911A16.662,16.662,0,0,0,528.979,862.867Z" transform="translate(-7.912 -8.535)"/>
    <path d="M495.045,874.6A13.786,13.786,0,0,0,484,889.793c.9,7.27,8.064,12.353,15.92,10.865,7.863-1.456,12.7-8.785,10.912-15.892A13.785,13.785,0,0,0,495.045,874.6Z" transform="translate(-7.912 -8.535)"/>
    <path d="M459.369,881.308A10.944,10.944,0,0,0,448.9,892.079a10.548,10.548,0,0,0,11.3,10.352c6.3-.214,10.972-5.417,10.458-11.187A10.938,10.938,0,0,0,459.369,881.308Z" transform="translate(-7.912 -8.535)"/>
    <path d="M420.558,883.853c-2.992.466-5.865,2.484-6.824,4.724a5.888,5.888,0,0,0,.752,6.242,13.58,13.58,0,0,0,4.638,3.511c1.581.755,2.568,1.35,4,1.077a9.072,9.072,0,0,0,6.816-8.049C430.185,887.1,426.685,883.007,420.558,883.853Z" transform="translate(-7.912 -8.535)"/>
    <path d="M834.1,872.484c4.029.679,7.716-2.5,8.191-6.794.483-4.357-2.071-8.158-5.667-8.768-3.6-.581-7.236,2.27-8.145,6.521S830.064,871.831,834.1,872.484Z" transform="translate(-7.912 -8.535)"/>
    <path d="M802.2,867c5.238,1.9,10.885-1.408,12.49-7.022s-.833-11.231-5.34-12.871c-4.521-1.6-9.978,1.177-12.313,6.526S796.953,865.128,802.2,867Z" transform="translate(-7.912 -8.535)"/>
    <path d="M771.4,855.557c6.152,3.592,13.9.758,17.06-5.859,3.151-6.6,1.414-14.05-3.661-17.02s-12.493-.87-16.651,5.158S765.254,851.948,771.4,855.557Z" transform="translate(-7.912 -8.535)"/>
    <path d="M743.25,839.476c6.4,4.9,16.057,2.962,21.052-4.295s4.275-16.477-1.746-21.084c-6.064-4.628-15.542-2.951-20.881,4.067C736.35,825.162,736.884,834.617,743.25,839.476Z" transform="translate(-7.912 -8.535)"/>
    <path d="M719.151,818.007c5.012,3.5,12.682,1.878,17.1-3.961s3.7-13.844-1.946-17.793c-5.664-3.965-13.7-1.9-17.42,4.424C713.18,806.98,714.162,814.513,719.151,818.007Z" transform="translate(-7.912 -8.535)"/>
    <path d="M694.238,800.92c4.268,1.737,9.842-.692,12.542-5.885,2.687-5.162.8-11.493-4.529-13.676-5.334-2.22-11.238,1-12.838,6.617S690,799.143,694.238,800.92Z" transform="translate(-7.912 -8.535)"/>
    <path d="M659.447,784.8c.591,4.384,3.705,7.457,7.031,7.494,3.328-.03,6.451-3.253,6.94-7.562a7.081,7.081,0,1,0-13.971.068Z" transform="translate(-7.912 -8.535)"/>
  </g>
</svg>
